# xmcd
# Copyright (C) 1995-1998 Ti Kan
#
# Track frame offsets:
#       150
#       11944
#       22346
#       34005
#       45425
#       58110
#       72359
#       84048
#       94182
#       106017
#       114663
#       127260
#
# Disc length: 1848 seconds
#
# Revision: 0
# Processed by: cddbd v1.5.2PL0 Copyright (c) Steve Scherf et al.
# Submitted via: CD-Import v1.0
#
DISCID=9f07360c
DTITLE=Rufus Thomas - Walking The Dog
DYEAR=1963
DGENRE=
TTITLE0=The Dog
TTITLE1=Mashed Potatoes
TTITLE2=Ooh-Poo-Pah-Doo
TTITLE3=You Said
TTITLE4=Boom Boom
TTITLE5=It's Aw'rite
TTITLE6=Walking The Dog
TTITLE7=Ya Ya
TTITLE8=Land Of 1,000 Dances
TTITLE9=Can Your Monkey Do The Dog
TTITLE10=Cause I Love You
TTITLE11=I Want To Be Loved
EXTD=
EXTT0=
EXTT1=
EXTT2=
EXTT3=
EXTT4=
EXTT5=
EXTT6=
EXTT7=
EXTT8=
EXTT9=
EXTT10=
EXTT11=
PLAYORDER=
